<svg width="17" height="16" viewBox="0 0 17 16" fill="none" xmlns="http://www.w3.org/2000/svg">
<path d="M5.45102 12.8842C5.45102 12.9503 5.38494 12.9833 5.28584 12.9833C5.18673 13.0164 5.12065 12.9503 5.12065 12.8842C5.12065 12.8182 5.18673 12.7521 5.28584 12.7521C5.38494 12.7521 5.45102 12.8182 5.45102 12.8842ZM4.42689 12.719C4.45992 12.653 4.55903 12.6199 4.65814 12.653C4.75725 12.686 4.79029 12.7521 4.79029 12.8182C4.75725 12.8842 4.65814 12.9173 4.59207 12.8842C4.49296 12.8842 4.42689 12.7851 4.42689 12.719ZM5.91353 12.686C5.9796 12.653 6.07871 12.719 6.07871 12.7851C6.11175 12.8512 6.04567 12.8842 5.94656 12.9173C5.84746 12.9503 5.74835 12.9173 5.74835 12.8512C5.74835 12.7521 5.81442 12.686 5.91353 12.686ZM8.0609 0C12.653 0 16.3861 3.50187 16.3861 8.0609C16.3861 11.7279 14.1396 14.8664 10.836 15.9566C10.4065 16.0557 10.2413 15.7914 10.2413 15.5602C10.2413 15.2959 10.2743 13.9084 10.2743 12.8182C10.2743 12.0253 10.0101 11.5297 9.71272 11.2654C11.5628 11.0672 13.5119 10.8029 13.5119 7.63142C13.5119 6.7064 13.1816 6.27693 12.653 5.68227C12.719 5.45102 13.0164 4.59207 12.5539 3.43579C11.8601 3.20454 10.2743 4.32778 10.2743 4.32778C9.61361 4.12956 8.91985 4.06349 8.19304 4.06349C7.49928 4.06349 6.80551 4.12956 6.14478 4.32778C6.14478 4.32778 4.526 3.23757 3.86527 3.43579C3.40276 4.59207 3.66705 5.45102 3.76616 5.68227C3.23757 6.27693 2.97328 6.7064 2.97328 7.63142C2.97328 10.8029 4.85636 11.0672 6.7064 11.2654C6.44211 11.4967 6.24389 11.8601 6.17782 12.3887C5.68227 12.6199 4.49296 12.9833 3.76616 11.6949C3.30365 10.902 2.47774 10.836 2.47774 10.836C1.68486 10.836 2.4447 11.3645 2.4447 11.3645C2.97328 11.5958 3.33668 12.5539 3.33668 12.5539C3.83223 14.0405 6.14478 13.545 6.14478 13.545C6.14478 14.2387 6.14478 15.362 6.14478 15.5932C6.14478 15.7914 6.01264 16.0557 5.58316 15.9897C2.27952 14.8664 0 11.7279 0 8.0609C0 3.50187 3.50187 0 8.0609 0ZM3.20454 11.3976C3.23757 11.3645 3.30365 11.3976 3.36972 11.4306C3.43579 11.4967 3.43579 11.5958 3.40276 11.6288C3.33668 11.6619 3.27061 11.6288 3.20454 11.5958C3.1715 11.5297 3.13846 11.4306 3.20454 11.3976ZM2.84114 11.1333C2.87417 11.1003 2.90721 11.1003 2.97328 11.1333C3.03936 11.1663 3.07239 11.1994 3.07239 11.2324C3.03936 11.2985 2.97328 11.2985 2.90721 11.2654C2.84114 11.2324 2.8081 11.1994 2.84114 11.1333ZM3.8983 12.3226C3.96438 12.2565 4.06349 12.2896 4.12956 12.3556C4.19563 12.4217 4.19563 12.5208 4.1626 12.5539C4.12956 12.6199 4.03045 12.5869 3.96438 12.5208C3.86527 12.4547 3.86527 12.3556 3.8983 12.3226ZM3.5349 11.8271C3.60098 11.794 3.66705 11.8271 3.73312 11.8931C3.76616 11.9592 3.76616 12.0583 3.73312 12.0913C3.66705 12.1244 3.60098 12.0913 3.5349 12.0253C3.46883 11.9592 3.46883 11.8601 3.5349 11.8271Z" fill="#FEFEFE"/>
</svg>
